<mxfile host="app.diagrams.net" modified="2020-09-25T01:54:54.310Z" agent="5.0 (Windows)" etag="oAxZSsTsd0S4wWXGrhvb" version="13.7.5" type="github">
  <diagram id="tGudRiqRXvtgVaULNMcG" name="Page-1">
    <mxGraphModel dx="1422" dy="546" grid="1" gridSize="10" guides="1" tooltips="1" connect="1" arrows="1" fold="1" page="1" pageScale="1" pageWidth="827" pageHeight="1169" math="0" shadow="0">
      <root>
        <mxCell id="0" />
        <mxCell id="1" parent="0" />
        <mxCell id="lMRRAaiONEJEbtsYTk0m-2" style="edgeStyle=orthogonalEdgeStyle;rounded=0;orthogonalLoop=1;jettySize=auto;html=1;" edge="1" parent="1" source="lMRRAaiONEJEbtsYTk0m-1">
          <mxGeometry relative="1" as="geometry">
            <mxPoint x="400" y="180" as="targetPoint" />
          </mxGeometry>
        </mxCell>
        <mxCell id="lMRRAaiONEJEbtsYTk0m-4" style="edgeStyle=orthogonalEdgeStyle;rounded=0;orthogonalLoop=1;jettySize=auto;html=1;exitX=0.5;exitY=1;exitDx=0;exitDy=0;entryX=0.5;entryY=0;entryDx=0;entryDy=0;" edge="1" parent="1" source="lMRRAaiONEJEbtsYTk0m-1" target="lMRRAaiONEJEbtsYTk0m-5">
          <mxGeometry relative="1" as="geometry">
            <mxPoint x="240.28571428571433" y="260" as="targetPoint" />
          </mxGeometry>
        </mxCell>
        <mxCell id="lMRRAaiONEJEbtsYTk0m-1" value="&lt;div&gt;Setup&lt;/div&gt;" style="rounded=1;whiteSpace=wrap;html=1;" vertex="1" parent="1">
          <mxGeometry x="180" y="160" width="120" height="40" as="geometry" />
        </mxCell>
        <mxCell id="lMRRAaiONEJEbtsYTk0m-3" value="Definir 2 leds y&amp;nbsp; 2 pulsadores" style="rounded=1;whiteSpace=wrap;html=1;" vertex="1" parent="1">
          <mxGeometry x="400" y="160" width="120" height="40" as="geometry" />
        </mxCell>
        <mxCell id="lMRRAaiONEJEbtsYTk0m-10" style="edgeStyle=orthogonalEdgeStyle;rounded=0;orthogonalLoop=1;jettySize=auto;html=1;exitX=0.5;exitY=1;exitDx=0;exitDy=0;entryX=0.5;entryY=0;entryDx=0;entryDy=0;" edge="1" parent="1" source="lMRRAaiONEJEbtsYTk0m-5" target="lMRRAaiONEJEbtsYTk0m-7">
          <mxGeometry relative="1" as="geometry" />
        </mxCell>
        <mxCell id="lMRRAaiONEJEbtsYTk0m-5" value="Loop" style="rounded=1;whiteSpace=wrap;html=1;" vertex="1" parent="1">
          <mxGeometry x="180" y="260" width="120" height="40" as="geometry" />
        </mxCell>
        <mxCell id="lMRRAaiONEJEbtsYTk0m-9" style="edgeStyle=orthogonalEdgeStyle;rounded=0;orthogonalLoop=1;jettySize=auto;html=1;exitX=1;exitY=0.5;exitDx=0;exitDy=0;" edge="1" parent="1" source="lMRRAaiONEJEbtsYTk0m-7" target="lMRRAaiONEJEbtsYTk0m-8">
          <mxGeometry relative="1" as="geometry" />
        </mxCell>
        <mxCell id="lMRRAaiONEJEbtsYTk0m-12" style="edgeStyle=orthogonalEdgeStyle;rounded=0;orthogonalLoop=1;jettySize=auto;html=1;exitX=0.5;exitY=1;exitDx=0;exitDy=0;entryX=0.5;entryY=0;entryDx=0;entryDy=0;" edge="1" parent="1" source="lMRRAaiONEJEbtsYTk0m-7" target="lMRRAaiONEJEbtsYTk0m-11">
          <mxGeometry relative="1" as="geometry" />
        </mxCell>
        <mxCell id="lMRRAaiONEJEbtsYTk0m-7" value="Led 1 apagado" style="rounded=1;whiteSpace=wrap;html=1;" vertex="1" parent="1">
          <mxGeometry x="180" y="360" width="120" height="40" as="geometry" />
        </mxCell>
        <mxCell id="lMRRAaiONEJEbtsYTk0m-14" style="edgeStyle=orthogonalEdgeStyle;rounded=0;orthogonalLoop=1;jettySize=auto;html=1;" edge="1" parent="1" source="lMRRAaiONEJEbtsYTk0m-8">
          <mxGeometry relative="1" as="geometry">
            <mxPoint x="240" y="440" as="targetPoint" />
            <Array as="points">
              <mxPoint x="460" y="440" />
              <mxPoint x="240" y="440" />
            </Array>
          </mxGeometry>
        </mxCell>
        <mxCell id="lMRRAaiONEJEbtsYTk0m-8" value="Led 2 apagado" style="rounded=1;whiteSpace=wrap;html=1;" vertex="1" parent="1">
          <mxGeometry x="400" y="360" width="120" height="40" as="geometry" />
        </mxCell>
        <mxCell id="lMRRAaiONEJEbtsYTk0m-16" style="edgeStyle=orthogonalEdgeStyle;rounded=0;orthogonalLoop=1;jettySize=auto;html=1;exitX=1;exitY=0.5;exitDx=0;exitDy=0;" edge="1" parent="1" source="lMRRAaiONEJEbtsYTk0m-11" target="lMRRAaiONEJEbtsYTk0m-15">
          <mxGeometry relative="1" as="geometry" />
        </mxCell>
        <mxCell id="lMRRAaiONEJEbtsYTk0m-18" style="edgeStyle=orthogonalEdgeStyle;rounded=0;orthogonalLoop=1;jettySize=auto;html=1;exitX=0.5;exitY=1;exitDx=0;exitDy=0;entryX=0.5;entryY=0;entryDx=0;entryDy=0;" edge="1" parent="1" source="lMRRAaiONEJEbtsYTk0m-11" target="lMRRAaiONEJEbtsYTk0m-17">
          <mxGeometry relative="1" as="geometry" />
        </mxCell>
        <mxCell id="lMRRAaiONEJEbtsYTk0m-11" value="Matener pulsado boton1" style="rounded=1;whiteSpace=wrap;html=1;" vertex="1" parent="1">
          <mxGeometry x="180" y="470" width="120" height="40" as="geometry" />
        </mxCell>
        <mxCell id="lMRRAaiONEJEbtsYTk0m-15" value="Enceder&amp;nbsp; 2 leds" style="rounded=1;whiteSpace=wrap;html=1;" vertex="1" parent="1">
          <mxGeometry x="400" y="470" width="120" height="40" as="geometry" />
        </mxCell>
        <mxCell id="lMRRAaiONEJEbtsYTk0m-20" style="edgeStyle=orthogonalEdgeStyle;rounded=0;orthogonalLoop=1;jettySize=auto;html=1;exitX=1;exitY=0.5;exitDx=0;exitDy=0;entryX=0;entryY=0.5;entryDx=0;entryDy=0;" edge="1" parent="1" source="lMRRAaiONEJEbtsYTk0m-17" target="lMRRAaiONEJEbtsYTk0m-19">
          <mxGeometry relative="1" as="geometry" />
        </mxCell>
        <mxCell id="lMRRAaiONEJEbtsYTk0m-24" style="edgeStyle=orthogonalEdgeStyle;rounded=0;orthogonalLoop=1;jettySize=auto;html=1;exitX=0;exitY=0.5;exitDx=0;exitDy=0;entryX=0;entryY=0.5;entryDx=0;entryDy=0;" edge="1" parent="1" source="lMRRAaiONEJEbtsYTk0m-17" target="lMRRAaiONEJEbtsYTk0m-5">
          <mxGeometry relative="1" as="geometry">
            <Array as="points">
              <mxPoint x="140" y="580" />
              <mxPoint x="140" y="280" />
            </Array>
          </mxGeometry>
        </mxCell>
        <mxCell id="lMRRAaiONEJEbtsYTk0m-17" value="Manter pulsado boton 2" style="rounded=1;whiteSpace=wrap;html=1;" vertex="1" parent="1">
          <mxGeometry x="180" y="560" width="120" height="40" as="geometry" />
        </mxCell>
        <mxCell id="lMRRAaiONEJEbtsYTk0m-19" value="Enceder led #2" style="rounded=1;whiteSpace=wrap;html=1;" vertex="1" parent="1">
          <mxGeometry x="400" y="560" width="120" height="40" as="geometry" />
        </mxCell>
      </root>
    </mxGraphModel>
  </diagram>
</mxfile>
